<svg id="Layer_1" data-name="Layer 1" xmlns="http://www.w3.org/2000/svg" xmlns:xlink="http://www.w3.org/1999/xlink" viewBox="0 0 193.75244 76.8877"><defs><style>.cls-1{font-size:22.14513px;fill:#eb008b;stroke:#000;stroke-width:0.1px;font-family:RoadRage, Road Rage;}.cls-1,.cls-7{stroke-miterlimit:10;}.cls-2{letter-spacing:0.0075em;}.cls-3{letter-spacing:0.01583em;}.cls-4{letter-spacing:0.0308em;}.cls-5{letter-spacing:0.02335em;}.cls-6{fill:url(#linear-gradient);}.cls-7{font-size:51.03366px;fill:none;stroke:#2b388f;font-family:DevilBreezeBold, Devil Breeze;}.cls-8{letter-spacing:-0.15999em;}</style><linearGradient id="linear-gradient" x1="97.02954" y1="10.50298" x2="97.02954" y2="41.24412" gradientUnits="userSpaceOnUse"><stop offset="0"/><stop offset="0.25" stop-color="#2a79ff"/><stop offset="0.47" stop-color="#fff"/><stop offset="0.48"/><stop offset="0.75" stop-color="#ff00b9"/><stop offset="1" stop-color="#fff"/></linearGradient></defs><text class="cls-1" transform="translate(37.59544 66.33759) scale(1.17672 1)"><tspan class="cls-2">C</tspan><tspan class="cls-3" x="14.3017" y="0">o</tspan><tspan x="28.34489" y="0">m</tspan><tspan class="cls-4" x="44.30765" y="0">p</tspan><tspan class="cls-5" x="58.86704" y="0">u</tspan><tspan x="72.39403" y="0">ters</tspan></text><path class="cls-6" d="M37.70361,5.60254V43.87793H27.95605V19.99414H27.854L13.4624,43.87793H1.72461L28.00732,5.60254Z"/><path class="cls-6" d="M44.23535,24.84229h8.21631a10.708,10.708,0,0,0,2.50049-.28077,5.36719,5.36719,0,0,0,2.0415-.94384,4.5355,4.5355,0,0,0,1.35254-1.68409,5.80627,5.80627,0,0,0,.48486-2.501,5.27577,5.27577,0,0,0-.51025-2.42383,4.37778,4.37778,0,0,0-1.37793-1.60742,5.87315,5.87315,0,0,0-2.01611-.89307,9.96518,9.96518,0,0,0-2.373-.28076H39.59131V5.70459H51.63525q1.53077,0,3.08741.05127a23.48658,23.48658,0,0,1,3.0874.30615,14.69351,14.69351,0,0,1,2.96.81641A11.32826,11.32826,0,0,1,63.4751,8.40967a12.24328,12.24328,0,0,1,3.521,4.69482,14.57493,14.57493,0,0,1,1.17383,5.76709,13.88108,13.88108,0,0,1-.63769,4.21,11.805,11.805,0,0,1-1.8628,3.62354,11.07339,11.07339,0,0,1-2.98535,2.70459,10.62376,10.62376,0,0,1-4.00635,1.45459L68.98682,43.87793H57.86133Z"/><path class="cls-6" d="M86.03174,12.13477V5.60254H95.728l26.28222,38.27539H110.22168L95.88086,19.99414h-.10205V43.46973l-14.085-23.47559h-.102V43.87793H71.84424V5.60254h9.69629Z"/><path class="cls-6" d="M135.38135,43.87793a19.73529,19.73529,0,0,1-13.626-5.38428,18.89471,18.89471,0,0,1-4.21094-5.9707,17.81382,17.81382,0,0,1-1.55664-7.42529,21.08065,21.08065,0,0,1,1.48047-7.85938,14.77365,14.77365,0,0,1,2.39844-4.08252,18.48988,18.48988,0,0,1,6.81348-5.665,20.0551,20.0551,0,0,1,8.752-1.88818,19.77809,19.77809,0,0,1,7.57812,1.45459,19.34641,19.34641,0,0,1,6.20118,4.03174,19.00873,19.00873,0,0,1,4.18457,6.07275,18.68741,18.68741,0,0,1,1.53125,7.57861,18.68243,18.68243,0,0,1-1.53125,7.57862,18.98728,18.98728,0,0,1-4.18457,6.07275,19.26557,19.26557,0,0,1-6.22657,4.03223A19.971,19.971,0,0,1,135.38135,43.87793Zm.05078-30.05859a9.60978,9.60978,0,0,0-4.1084.86718,9.50145,9.50145,0,0,0-3.16406,2.34766,10.758,10.758,0,0,0-2.01563,3.41943,11.86176,11.86176,0,0,0-.71484,4.13379,12.43538,12.43538,0,0,0,.71484,4.23584,10.3822,10.3822,0,0,0,2.041,3.47022,10.00651,10.00651,0,0,0,3.21484,2.373,9.66211,9.66211,0,0,0,4.18555.89307,9.09419,9.09419,0,0,0,4.03125-.89307,9.70336,9.70336,0,0,0,3.13867-2.39892,11.00106,11.00106,0,0,0,2.01563-3.47022,11.77111,11.77111,0,0,0,.71484-4.05713,11.92226,11.92226,0,0,0-.71484-4.10791,11.075,11.075,0,0,0-2.041-3.49609,9.75447,9.75447,0,0,0-3.18945-2.42383A9.38269,9.38269,0,0,0,135.43213,13.81934Z"/><path class="cls-6" d="M192.33447,43.87793H181.10693L167.4292,24.84229h8.26758a7.85469,7.85469,0,0,0,4.56738-1.25,4.74729,4.74729,0,0,0,1.8125-4.21045,5.27168,5.27168,0,0,0-.51074-2.42432A4.3818,4.3818,0,0,0,180.188,15.3501a5.889,5.889,0,0,0-2.01563-.89307,10.21311,10.21311,0,0,0-2.42382-.28076h-9.13575V43.87793h-9.74707V5.60254h18.11719q1.4795,0,3.03613.05127a21.0085,21.0085,0,0,1,3.08789.33154,17.37136,17.37136,0,0,1,2.96.81641,9.81637,9.81637,0,0,1,2.65332,1.50586,12.43638,12.43638,0,0,1,3.54688,4.7207,14.49431,14.49431,0,0,1,1.19922,5.792,13.884,13.884,0,0,1-.6377,4.21045,11.79048,11.79048,0,0,1-1.86328,3.62354,10.87254,10.87254,0,0,1-7.042,4.15918Z"/><text class="cls-7" transform="translate(0.5 43.87793)">AR<tspan class="cls-8" x="70.17041" y="0">m</tspan><tspan x="114.4165" y="0">Or</tspan></text></svg>